# MagicaVoxel @ ephtracy

# material
mtllib BloodEye.mtl
usemtl palette

# normals
vn -1 0 0
vn 1 0 0
vn 0 0 1
vn 0 0 -1
vn 0 -1 0
vn 0 1 0

# texcoords
vt 0.306641 0.5
vt 0.845703 0.5
vt 0.966797 0.5
vt 0.990234 0.5

# verts
v -10 9 1
v -10 9 -1
v -10 12 1
v -10 12 -1
v -9 8 1
v -9 8 -1
v -9 9 1
v -9 9 -1
v -9 12 1
v -9 12 -1
v -9 13 1
v -9 13 -1
v -8 3 1
v -8 3 -1
v -8 8 1
v -8 8 -1
v -8 13 1
v -8 13 -1
v -8 14 1
v -8 14 -1
v -7 14 1
v -7 14 -1
v -7 15 1
v -7 15 -1
v -6 5 1
v -6 5 -1
v -6 6 1
v -6 6 -1
v -6 15 1
v -6 15 -1
v -6 16 1
v -6 16 -1
v -5 4 1
v -5 4 -1
v -5 5 1
v -5 5 -1
v -5 16 1
v -5 16 -1
v -5 17 1
v -5 17 -1
v -4 3 1
v -4 3 -1
v -4 4 1
v -4 4 -1
v -3 1 1
v -3 1 -1
v -3 3 1
v -3 3 -1
v 7 4 1
v 7 4 -1
v 7 7 1
v 7 7 -1
v -7 3 1
v -7 3 -1
v -7 6 1
v -7 6 -1
v -2 1 1
v -2 1 -1
v -2 3 1
v -2 3 -1
v 3 3 1
v 3 3 -1
v 3 4 1
v 3 4 -1
v 4 4 1
v 4 4 -1
v 4 5 1
v 4 5 -1
v 4 16 1
v 4 16 -1
v 4 17 1
v 4 17 -1
v 5 5 1
v 5 5 -1
v 5 6 1
v 5 6 -1
v 5 15 1
v 5 15 -1
v 5 16 1
v 5 16 -1
v 6 6 1
v 6 6 -1
v 6 7 1
v 6 7 -1
v 6 14 1
v 6 14 -1
v 6 15 1
v 6 15 -1
v 7 13 1
v 7 13 -1
v 7 14 1
v 7 14 -1
v 8 4 1
v 8 4 -1
v 8 9 1
v 8 9 -1
v 8 12 1
v 8 12 -1
v 8 13 1
v 8 13 -1
v 9 9 1
v 9 9 -1
v 9 12 1
v 9 12 -1
v -10 9 1
v -10 12 1
v -9 8 1
v -9 9 1
v -9 10 1
v -9 11 1
v -9 12 1
v -9 13 1
v -8 3 1
v -8 8 1
v -8 9 1
v -8 10 1
v -8 11 1
v -8 12 1
v -8 13 1
v -8 14 1
v -7 3 1
v -7 6 1
v -7 8 1
v -7 9 1
v -7 10 1
v -7 11 1
v -7 12 1
v -7 13 1
v -7 14 1
v -7 15 1
v -6 5 1
v -6 6 1
v -6 7 1
v -6 8 1
v -6 11 1
v -6 13 1
v -6 14 1
v -6 15 1
v -6 16 1
v -5 4 1
v -5 5 1
v -5 6 1
v -5 7 1
v -5 9 1
v -5 12 1
v -5 14 1
v -5 15 1
v -5 16 1
v -5 17 1
v -4 3 1
v -4 4 1
v -4 5 1
v -4 6 1
v -4 8 1
v -4 9 1
v -4 12 1
v -4 13 1
v -3 1 1
v -3 3 1
v -3 4 1
v -3 5 1
v -3 7 1
v -3 8 1
v -3 9 1
v -3 12 1
v -3 13 1
v -3 14 1
v -3 15 1
v -3 16 1
v -2 1 1
v -2 3 1
v -2 5 1
v -2 6 1
v -2 7 1
v -2 8 1
v -2 9 1
v -2 12 1
v -2 13 1
v -2 14 1
v -2 15 1
v -1 3 1
v -1 5 1
v -1 6 1
v -1 13 1
v -1 14 1
v 0 3 1
v 0 5 1
v 0 6 1
v 1 6 1
v 1 7 1
v 1 8 1
v 1 9 1
v 1 12 1
v 1 13 1
v 1 14 1
v 1 15 1
v 2 7 1
v 2 8 1
v 2 9 1
v 2 11 1
v 2 12 1
v 2 13 1
v 2 14 1
v 2 15 1
v 2 16 1
v 3 3 1
v 3 4 1
v 3 5 1
v 3 6 1
v 3 7 1
v 3 8 1
v 3 9 1
v 3 11 1
v 3 12 1
v 3 13 1
v 4 4 1
v 4 5 1
v 4 6 1
v 4 7 1
v 4 9 1
v 4 10 1
v 4 12 1
v 4 14 1
v 4 15 1
v 4 16 1
v 4 17 1
v 5 5 1
v 5 6 1
v 5 7 1
v 5 8 1
v 5 12 1
v 5 13 1
v 5 14 1
v 5 15 1
v 5 16 1
v 6 6 1
v 6 7 1
v 6 8 1
v 6 9 1
v 6 12 1
v 6 13 1
v 6 14 1
v 6 15 1
v 7 4 1
v 7 7 1
v 7 9 1
v 7 10 1
v 7 11 1
v 7 12 1
v 7 13 1
v 7 14 1
v 8 4 1
v 8 9 1
v 8 11 1
v 8 12 1
v 8 13 1
v 9 9 1
v 9 12 1
v -10 9 -1
v -10 12 -1
v -9 8 -1
v -9 9 -1
v -9 10 -1
v -9 11 -1
v -9 12 -1
v -9 13 -1
v -8 3 -1
v -8 8 -1
v -8 9 -1
v -8 10 -1
v -8 11 -1
v -8 12 -1
v -8 13 -1
v -8 14 -1
v -7 3 -1
v -7 6 -1
v -7 8 -1
v -7 9 -1
v -7 10 -1
v -7 11 -1
v -7 12 -1
v -7 13 -1
v -7 14 -1
v -7 15 -1
v -6 5 -1
v -6 6 -1
v -6 7 -1
v -6 8 -1
v -6 11 -1
v -6 13 -1
v -6 14 -1
v -6 15 -1
v -6 16 -1
v -5 4 -1
v -5 5 -1
v -5 6 -1
v -5 7 -1
v -5 9 -1
v -5 12 -1
v -5 14 -1
v -5 15 -1
v -5 16 -1
v -5 17 -1
v -4 3 -1
v -4 4 -1
v -4 5 -1
v -4 6 -1
v -4 8 -1
v -4 9 -1
v -4 12 -1
v -4 13 -1
v -3 1 -1
v -3 3 -1
v -3 4 -1
v -3 5 -1
v -3 7 -1
v -3 8 -1
v -3 9 -1
v -3 12 -1
v -3 13 -1
v -3 14 -1
v -3 15 -1
v -3 16 -1
v -2 1 -1
v -2 3 -1
v -2 5 -1
v -2 6 -1
v -2 7 -1
v -2 8 -1
v -2 9 -1
v -2 12 -1
v -2 13 -1
v -2 14 -1
v -2 15 -1
v -1 3 -1
v -1 5 -1
v -1 6 -1
v -1 13 -1
v -1 14 -1
v 0 3 -1
v 0 5 -1
v 0 6 -1
v 1 6 -1
v 1 7 -1
v 1 8 -1
v 1 9 -1
v 1 12 -1
v 1 13 -1
v 1 14 -1
v 1 15 -1
v 2 7 -1
v 2 8 -1
v 2 9 -1
v 2 11 -1
v 2 12 -1
v 2 13 -1
v 2 14 -1
v 2 15 -1
v 2 16 -1
v 3 3 -1
v 3 4 -1
v 3 5 -1
v 3 6 -1
v 3 7 -1
v 3 8 -1
v 3 9 -1
v 3 11 -1
v 3 12 -1
v 3 13 -1
v 4 4 -1
v 4 5 -1
v 4 6 -1
v 4 7 -1
v 4 9 -1
v 4 10 -1
v 4 12 -1
v 4 14 -1
v 4 15 -1
v 4 16 -1
v 4 17 -1
v 5 5 -1
v 5 6 -1
v 5 7 -1
v 5 8 -1
v 5 12 -1
v 5 13 -1
v 5 14 -1
v 5 15 -1
v 5 16 -1
v 6 6 -1
v 6 7 -1
v 6 8 -1
v 6 9 -1
v 6 12 -1
v 6 13 -1
v 6 14 -1
v 6 15 -1
v 7 4 -1
v 7 7 -1
v 7 9 -1
v 7 10 -1
v 7 11 -1
v 7 12 -1
v 7 13 -1
v 7 14 -1
v 8 4 -1
v 8 9 -1
v 8 11 -1
v 8 12 -1
v 8 13 -1
v 9 9 -1
v 9 12 -1
v -3 1 1
v -2 1 1
v -3 1 -1
v -2 1 -1
v -8 3 1
v -7 3 1
v -4 3 1
v -3 3 1
v -2 3 1
v -1 3 1
v 0 3 1
v 3 3 1
v -8 3 -1
v -7 3 -1
v -4 3 -1
v -3 3 -1
v -2 3 -1
v -1 3 -1
v 0 3 -1
v 3 3 -1
v -5 4 1
v -4 4 1
v 3 4 1
v 4 4 1
v 7 4 1
v 8 4 1
v -5 4 -1
v -4 4 -1
v 3 4 -1
v 4 4 -1
v 7 4 -1
v 8 4 -1
v -6 5 1
v -5 5 1
v 4 5 1
v 5 5 1
v -6 5 -1
v -5 5 -1
v 4 5 -1
v 5 5 -1
v -7 6 1
v -6 6 1
v 5 6 1
v 6 6 1
v -7 6 -1
v -6 6 -1
v 5 6 -1
v 6 6 -1
v 6 7 1
v 7 7 1
v 6 7 -1
v 7 7 -1
v -9 8 1
v -8 8 1
v -9 8 -1
v -8 8 -1
v -10 9 1
v -9 9 1
v 8 9 1
v 9 9 1
v -10 9 -1
v -9 9 -1
v 8 9 -1
v 9 9 -1
v -10 12 1
v -9 12 1
v 8 12 1
v 9 12 1
v -10 12 -1
v -9 12 -1
v 8 12 -1
v 9 12 -1
v -9 13 1
v -8 13 1
v 7 13 1
v 8 13 1
v -9 13 -1
v -8 13 -1
v 7 13 -1
v 8 13 -1
v -8 14 1
v -7 14 1
v 6 14 1
v 7 14 1
v -8 14 -1
v -7 14 -1
v 6 14 -1
v 7 14 -1
v -7 15 1
v -6 15 1
v 5 15 1
v 6 15 1
v -7 15 -1
v -6 15 -1
v 5 15 -1
v 6 15 -1
v -6 16 1
v -5 16 1
v 4 16 1
v 5 16 1
v -6 16 -1
v -5 16 -1
v 4 16 -1
v 5 16 -1
v -5 17 1
v 4 17 1
v -5 17 -1
v 4 17 -1

# faces
f 3/4/1 2/4/1 1/4/1
f 4/4/1 2/4/1 3/4/1
f 7/4/1 6/4/1 5/4/1
f 8/4/1 6/4/1 7/4/1
f 11/4/1 10/4/1 9/4/1
f 12/4/1 10/4/1 11/4/1
f 15/2/1 14/2/1 13/2/1
f 16/2/1 14/2/1 15/2/1
f 19/4/1 18/4/1 17/4/1
f 20/4/1 18/4/1 19/4/1
f 23/4/1 22/4/1 21/4/1
f 24/4/1 22/4/1 23/4/1
f 27/4/1 26/4/1 25/4/1
f 28/4/1 26/4/1 27/4/1
f 31/4/1 30/4/1 29/4/1
f 32/4/1 30/4/1 31/4/1
f 35/4/1 34/4/1 33/4/1
f 36/4/1 34/4/1 35/4/1
f 39/4/1 38/4/1 37/4/1
f 40/4/1 38/4/1 39/4/1
f 43/2/1 42/2/1 41/2/1
f 44/2/1 42/2/1 43/2/1
f 47/2/1 46/2/1 45/2/1
f 48/2/1 46/2/1 47/2/1
f 51/2/1 50/2/1 49/2/1
f 52/2/1 50/2/1 51/2/1
f 53/2/2 54/2/2 55/2/2
f 55/2/2 54/2/2 56/2/2
f 57/2/2 58/2/2 59/2/2
f 59/2/2 58/2/2 60/2/2
f 61/4/2 62/4/2 63/4/2
f 63/4/2 62/4/2 64/4/2
f 65/4/2 66/4/2 67/4/2
f 67/4/2 66/4/2 68/4/2
f 69/4/2 70/4/2 71/4/2
f 71/4/2 70/4/2 72/4/2
f 73/4/2 74/4/2 75/4/2
f 75/4/2 74/4/2 76/4/2
f 77/4/2 78/4/2 79/4/2
f 79/4/2 78/4/2 80/4/2
f 81/4/2 82/4/2 83/4/2
f 83/4/2 82/4/2 84/4/2
f 85/4/2 86/4/2 87/4/2
f 87/4/2 86/4/2 88/4/2
f 89/4/2 90/4/2 91/4/2
f 91/4/2 90/4/2 92/4/2
f 93/2/2 94/2/2 95/2/2
f 95/2/2 94/2/2 96/2/2
f 97/4/2 98/4/2 99/4/2
f 99/4/2 98/4/2 100/4/2
f 101/4/2 102/4/2 103/4/2
f 103/4/2 102/4/2 104/4/2
f 108/4/3 106/4/3 105/4/3
f 109/4/3 106/4/3 108/4/3
f 110/4/3 106/4/3 109/4/3
f 111/4/3 106/4/3 110/4/3
f 114/4/3 108/4/3 107/4/3
f 114/4/3 109/4/3 108/4/3
f 115/4/3 109/4/3 114/4/3
f 116/2/3 110/2/3 109/2/3
f 116/4/3 109/4/3 115/4/3
f 117/4/3 112/4/3 111/4/3
f 117/2/3 110/2/3 116/2/3
f 117/4/3 111/4/3 110/4/3
f 118/4/3 112/4/3 117/4/3
f 119/4/3 112/4/3 118/4/3
f 121/2/3 114/2/3 113/2/3
f 122/2/3 114/2/3 121/2/3
f 123/4/3 115/4/3 114/4/3
f 123/2/3 114/2/3 122/2/3
f 124/3/3 116/3/3 115/3/3
f 124/4/3 115/4/3 123/4/3
f 125/2/3 117/2/3 116/2/3
f 125/3/3 116/3/3 124/3/3
f 125/2/3 118/2/3 117/2/3
f 126/2/3 118/2/3 125/2/3
f 127/4/3 120/4/3 119/4/3
f 127/2/3 118/2/3 126/2/3
f 127/4/3 119/4/3 118/4/3
f 128/4/3 120/4/3 127/4/3
f 129/4/3 120/4/3 128/4/3
f 132/4/3 123/4/3 122/4/3
f 133/4/3 123/4/3 132/4/3
f 134/3/3 126/3/3 125/3/3
f 134/4/3 123/4/3 133/4/3
f 134/3/3 124/3/3 123/3/3
f 134/3/3 125/3/3 124/3/3
f 135/2/3 127/2/3 126/2/3
f 135/3/3 126/3/3 134/3/3
f 135/2/3 128/2/3 127/2/3
f 136/4/3 129/4/3 128/4/3
f 136/2/3 128/2/3 135/2/3
f 136/4/3 130/4/3 129/4/3
f 137/4/3 130/4/3 136/4/3
f 138/4/3 130/4/3 137/4/3
f 141/4/3 133/4/3 132/4/3
f 141/4/3 132/4/3 131/4/3
f 142/4/3 133/4/3 141/4/3
f 143/2/3 135/2/3 134/2/3
f 143/4/3 133/4/3 142/4/3
f 143/2/3 134/2/3 133/2/3
f 143/2/3 136/2/3 135/2/3
f 143/2/3 137/2/3 136/2/3
f 144/2/3 137/2/3 143/2/3
f 145/2/3 137/2/3 144/2/3
f 146/4/3 139/4/3 138/4/3
f 146/2/3 137/2/3 145/2/3
f 146/4/3 138/4/3 137/4/3
f 147/4/3 139/4/3 146/4/3
f 148/4/3 139/4/3 147/4/3
f 151/4/3 142/4/3 141/4/3
f 151/4/3 141/4/3 140/4/3
f 152/4/3 142/4/3 151/4/3
f 153/3/3 144/3/3 143/3/3
f 153/4/3 142/4/3 152/4/3
f 153/3/3 143/3/3 142/3/3
f 154/3/3 144/3/3 153/3/3
f 155/4/3 145/4/3 144/4/3
f 155/3/3 144/3/3 154/3/3
f 156/2/3 146/2/3 145/2/3
f 156/4/3 145/4/3 155/4/3
f 156/2/3 147/2/3 146/2/3
f 157/2/3 147/2/3 156/2/3
f 159/2/3 151/2/3 150/2/3
f 160/4/3 152/4/3 151/4/3
f 160/2/3 151/2/3 159/2/3
f 161/2/3 154/2/3 153/2/3
f 161/4/3 152/4/3 160/4/3
f 161/2/3 153/2/3 152/2/3
f 162/2/3 154/2/3 161/2/3
f 163/4/3 155/4/3 154/4/3
f 163/2/3 154/2/3 162/2/3
f 164/3/3 156/3/3 155/3/3
f 164/4/3 155/4/3 163/4/3
f 165/4/3 157/4/3 156/4/3
f 165/3/3 156/3/3 164/3/3
f 166/2/3 147/2/3 157/2/3
f 166/4/3 157/4/3 165/4/3
f 167/2/3 147/2/3 166/2/3
f 168/4/3 149/4/3 148/4/3
f 168/2/3 147/2/3 167/2/3
f 168/4/3 148/4/3 147/4/3
f 169/4/3 149/4/3 168/4/3
f 170/2/3 160/2/3 159/2/3
f 170/2/3 159/2/3 158/2/3
f 170/2/3 161/2/3 160/2/3
f 171/2/3 161/2/3 170/2/3
f 172/3/3 162/3/3 161/3/3
f 172/2/3 161/2/3 171/2/3
f 173/3/3 162/3/3 172/3/3
f 174/4/3 163/4/3 162/4/3
f 174/3/3 162/3/3 173/3/3
f 175/2/3 164/2/3 163/2/3
f 175/4/3 163/4/3 174/4/3
f 176/4/3 165/4/3 164/4/3
f 176/2/3 164/2/3 175/2/3
f 177/3/3 166/3/3 165/3/3
f 177/4/3 165/4/3 176/4/3
f 178/4/3 167/4/3 166/4/3
f 178/3/3 166/3/3 177/3/3
f 179/2/3 169/2/3 168/2/3
f 179/4/3 167/4/3 178/4/3
f 179/2/3 168/2/3 167/2/3
f 180/2/3 169/2/3 179/2/3
f 181/4/3 172/4/3 171/4/3
f 182/3/3 173/3/3 172/3/3
f 182/4/3 172/4/3 181/4/3
f 183/4/3 174/4/3 173/4/3
f 183/3/3 173/3/3 182/3/3
f 184/4/3 177/4/3 176/4/3
f 184/4/3 176/4/3 175/4/3
f 184/4/3 178/4/3 177/4/3
f 184/3/3 179/3/3 178/3/3
f 185/4/3 180/4/3 179/4/3
f 185/3/3 179/3/3 184/3/3
f 186/2/3 183/2/3 182/2/3
f 186/2/3 182/2/3 181/2/3
f 187/2/3 183/2/3 186/2/3
f 188/4/3 174/4/3 183/4/3
f 188/2/3 183/2/3 187/2/3
f 189/3/3 188/3/3 187/3/3
f 189/4/3 174/4/3 188/4/3
f 190/3/3 175/3/3 174/3/3
f 190/4/3 174/4/3 189/4/3
f 191/4/3 184/4/3 175/4/3
f 191/3/3 175/3/3 190/3/3
f 192/4/3 184/4/3 191/4/3
f 193/4/3 184/4/3 192/4/3
f 194/1/3 185/1/3 184/1/3
f 194/4/3 184/4/3 193/4/3
f 195/4/3 180/4/3 185/4/3
f 195/1/3 185/1/3 194/1/3
f 196/2/3 169/2/3 180/2/3
f 196/4/3 180/4/3 195/4/3
f 197/3/3 190/3/3 189/3/3
f 197/4/3 191/4/3 190/4/3
f 198/3/3 192/3/3 191/3/3
f 198/4/3 191/4/3 197/4/3
f 199/4/3 193/4/3 192/4/3
f 199/3/3 192/3/3 198/3/3
f 200/4/3 193/4/3 199/4/3
f 201/1/3 194/1/3 193/1/3
f 201/4/3 193/4/3 200/4/3
f 202/4/3 195/4/3 194/4/3
f 202/1/3 194/1/3 201/1/3
f 203/2/3 196/2/3 195/2/3
f 203/4/3 195/4/3 202/4/3
f 204/2/3 169/2/3 196/2/3
f 204/2/3 196/2/3 203/2/3
f 205/4/3 149/4/3 169/4/3
f 205/2/3 169/2/3 204/2/3
f 206/4/3 187/4/3 186/4/3
f 207/4/3 187/4/3 206/4/3
f 208/3/3 189/3/3 187/3/3
f 208/4/3 187/4/3 207/4/3
f 208/3/3 197/3/3 189/3/3
f 209/3/3 197/3/3 208/3/3
f 210/2/3 198/2/3 197/2/3
f 210/3/3 197/3/3 209/3/3
f 211/4/3 199/4/3 198/4/3
f 211/2/3 198/2/3 210/2/3
f 212/3/3 200/3/3 199/3/3
f 212/4/3 199/4/3 211/4/3
f 213/1/3 201/1/3 200/1/3
f 213/3/3 200/3/3 212/3/3
f 214/4/3 202/4/3 201/4/3
f 214/1/3 201/1/3 213/1/3
f 215/2/3 204/2/3 203/2/3
f 215/4/3 202/4/3 214/4/3
f 215/2/3 203/2/3 202/2/3
f 216/4/3 209/4/3 208/4/3
f 216/4/3 208/4/3 207/4/3
f 217/4/3 209/4/3 216/4/3
f 218/2/3 211/2/3 210/2/3
f 218/4/3 209/4/3 217/4/3
f 218/2/3 212/2/3 211/2/3
f 218/2/3 210/2/3 209/2/3
f 219/2/3 212/2/3 218/2/3
f 220/4/3 214/4/3 213/4/3
f 220/2/3 212/2/3 219/2/3
f 220/4/3 213/4/3 212/4/3
f 221/4/3 214/4/3 220/4/3
f 222/2/3 215/2/3 214/2/3
f 222/4/3 214/4/3 221/4/3
f 223/2/3 204/2/3 215/2/3
f 223/2/3 215/2/3 222/2/3
f 224/4/3 205/4/3 204/4/3
f 224/2/3 204/2/3 223/2/3
f 225/4/3 149/4/3 205/4/3
f 225/4/3 205/4/3 224/4/3
f 226/4/3 149/4/3 225/4/3
f 227/4/3 219/4/3 218/4/3
f 227/4/3 218/4/3 217/4/3
f 228/4/3 219/4/3 227/4/3
f 229/3/3 221/3/3 220/3/3
f 229/4/3 219/4/3 228/4/3
f 229/3/3 220/3/3 219/3/3
f 230/3/3 221/3/3 229/3/3
f 231/2/3 222/2/3 221/2/3
f 231/2/3 223/2/3 222/2/3
f 232/2/3 223/2/3 231/2/3
f 233/4/3 224/4/3 223/4/3
f 233/2/3 223/2/3 232/2/3
f 233/4/3 225/4/3 224/4/3
f 234/4/3 225/4/3 233/4/3
f 235/4/3 225/4/3 234/4/3
f 236/4/3 230/4/3 229/4/3
f 236/4/3 229/4/3 228/4/3
f 237/4/3 230/4/3 236/4/3
f 238/3/3 221/3/3 230/3/3
f 238/4/3 230/4/3 237/4/3
f 239/3/3 221/3/3 238/3/3
f 240/3/3 232/3/3 231/3/3
f 240/2/3 231/2/3 221/2/3
f 241/4/3 234/4/3 233/4/3
f 241/3/3 232/3/3 240/3/3
f 241/4/3 233/4/3 232/4/3
f 242/4/3 234/4/3 241/4/3
f 243/4/3 234/4/3 242/4/3
f 245/4/3 239/4/3 238/4/3
f 245/4/3 238/4/3 237/4/3
f 246/3/3 221/3/3 239/3/3
f 246/4/3 239/4/3 245/4/3
f 247/2/3 240/2/3 221/2/3
f 247/3/3 221/3/3 246/3/3
f 248/2/3 240/2/3 247/2/3
f 249/4/3 242/4/3 241/4/3
f 249/2/3 240/2/3 248/2/3
f 249/4/3 241/4/3 240/4/3
f 250/4/3 242/4/3 249/4/3
f 251/4/3 242/4/3 250/4/3
f 252/2/3 245/2/3 244/2/3
f 252/2/3 248/2/3 247/2/3
f 252/2/3 246/2/3 245/2/3
f 252/2/3 247/2/3 246/2/3
f 253/2/3 248/2/3 252/2/3
f 254/4/3 250/4/3 249/4/3
f 254/2/3 248/2/3 253/2/3
f 254/4/3 249/4/3 248/4/3
f 255/4/3 250/4/3 254/4/3
f 256/4/3 250/4/3 255/4/3
f 257/4/3 254/4/3 253/4/3
f 257/4/3 255/4/3 254/4/3
f 258/4/3 255/4/3 257/4/3
f 259/4/4 260/4/4 262/4/4
f 262/4/4 260/4/4 263/4/4
f 263/4/4 260/4/4 264/4/4
f 264/4/4 260/4/4 265/4/4
f 261/4/4 262/4/4 268/4/4
f 262/4/4 263/4/4 268/4/4
f 268/4/4 263/4/4 269/4/4
f 263/2/4 264/2/4 270/2/4
f 269/4/4 263/4/4 270/4/4
f 265/4/4 266/4/4 271/4/4
f 270/2/4 264/2/4 271/2/4
f 264/4/4 265/4/4 271/4/4
f 271/4/4 266/4/4 272/4/4
f 272/4/4 266/4/4 273/4/4
f 267/2/4 268/2/4 275/2/4
f 275/2/4 268/2/4 276/2/4
f 268/4/4 269/4/4 277/4/4
f 276/2/4 268/2/4 277/2/4
f 269/3/4 270/3/4 278/3/4
f 277/4/4 269/4/4 278/4/4
f 270/2/4 271/2/4 279/2/4
f 278/3/4 270/3/4 279/3/4
f 271/2/4 272/2/4 279/2/4
f 279/2/4 272/2/4 280/2/4
f 273/4/4 274/4/4 281/4/4
f 280/2/4 272/2/4 281/2/4
f 272/4/4 273/4/4 281/4/4
f 281/4/4 274/4/4 282/4/4
f 282/4/4 274/4/4 283/4/4
f 276/4/4 277/4/4 286/4/4
f 286/4/4 277/4/4 287/4/4
f 279/3/4 280/3/4 288/3/4
f 287/4/4 277/4/4 288/4/4
f 277/3/4 278/3/4 288/3/4
f 278/3/4 279/3/4 288/3/4
f 280/2/4 281/2/4 289/2/4
f 288/3/4 280/3/4 289/3/4
f 281/2/4 282/2/4 289/2/4
f 282/4/4 283/4/4 290/4/4
f 289/2/4 282/2/4 290/2/4
f 283/4/4 284/4/4 290/4/4
f 290/4/4 284/4/4 291/4/4
f 291/4/4 284/4/4 292/4/4
f 286/4/4 287/4/4 295/4/4
f 285/4/4 286/4/4 295/4/4
f 295/4/4 287/4/4 296/4/4
f 288/2/4 289/2/4 297/2/4
f 296/4/4 287/4/4 297/4/4
f 287/2/4 288/2/4 297/2/4
f 289/2/4 290/2/4 297/2/4
f 290/2/4 291/2/4 297/2/4
f 297/2/4 291/2/4 298/2/4
f 298/2/4 291/2/4 299/2/4
f 292/4/4 293/4/4 300/4/4
f 299/2/4 291/2/4 300/2/4
f 291/4/4 292/4/4 300/4/4
f 300/4/4 293/4/4 301/4/4
f 301/4/4 293/4/4 302/4/4
f 295/4/4 296/4/4 305/4/4
f 294/4/4 295/4/4 305/4/4
f 305/4/4 296/4/4 306/4/4
f 297/3/4 298/3/4 307/3/4
f 306/4/4 296/4/4 307/4/4
f 296/3/4 297/3/4 307/3/4
f 307/3/4 298/3/4 308/3/4
f 298/4/4 299/4/4 309/4/4
f 308/3/4 298/3/4 309/3/4
f 299/2/4 300/2/4 310/2/4
f 309/4/4 299/4/4 310/4/4
f 300/2/4 301/2/4 310/2/4
f 310/2/4 301/2/4 311/2/4
f 304/2/4 305/2/4 313/2/4
f 305/4/4 306/4/4 314/4/4
f 313/2/4 305/2/4 314/2/4
f 307/2/4 308/2/4 315/2/4
f 314/4/4 306/4/4 315/4/4
f 306/2/4 307/2/4 315/2/4
f 315/2/4 308/2/4 316/2/4
f 308/4/4 309/4/4 317/4/4
f 316/2/4 308/2/4 317/2/4
f 309/3/4 310/3/4 318/3/4
f 317/4/4 309/4/4 318/4/4
f 310/4/4 311/4/4 319/4/4
f 318/3/4 310/3/4 319/3/4
f 311/2/4 301/2/4 320/2/4
f 319/4/4 311/4/4 320/4/4
f 320/2/4 301/2/4 321/2/4
f 302/4/4 303/4/4 322/4/4
f 321/2/4 301/2/4 322/2/4
f 301/4/4 302/4/4 322/4/4
f 322/4/4 303/4/4 323/4/4
f 313/2/4 314/2/4 324/2/4
f 312/2/4 313/2/4 324/2/4
f 314/2/4 315/2/4 324/2/4
f 324/2/4 315/2/4 325/2/4
f 315/3/4 316/3/4 326/3/4
f 325/2/4 315/2/4 326/2/4
f 326/3/4 316/3/4 327/3/4
f 316/4/4 317/4/4 328/4/4
f 327/3/4 316/3/4 328/3/4
f 317/2/4 318/2/4 329/2/4
f 328/4/4 317/4/4 329/4/4
f 318/4/4 319/4/4 330/4/4
f 329/2/4 318/2/4 330/2/4
f 319/3/4 320/3/4 331/3/4
f 330/4/4 319/4/4 331/4/4
f 320/4/4 321/4/4 332/4/4
f 331/3/4 320/3/4 332/3/4
f 322/2/4 323/2/4 333/2/4
f 332/4/4 321/4/4 333/4/4
f 321/2/4 322/2/4 333/2/4
f 333/2/4 323/2/4 334/2/4
f 325/4/4 326/4/4 335/4/4
f 326/3/4 327/3/4 336/3/4
f 335/4/4 326/4/4 336/4/4
f 327/4/4 328/4/4 337/4/4
f 336/3/4 327/3/4 337/3/4
f 330/4/4 331/4/4 338/4/4
f 329/4/4 330/4/4 338/4/4
f 331/4/4 332/4/4 338/4/4
f 332/3/4 333/3/4 338/3/4
f 333/4/4 334/4/4 339/4/4
f 338/3/4 333/3/4 339/3/4
f 336/2/4 337/2/4 340/2/4
f 335/2/4 336/2/4 340/2/4
f 340/2/4 337/2/4 341/2/4
f 337/4/4 328/4/4 342/4/4
f 341/2/4 337/2/4 342/2/4
f 341/3/4 342/3/4 343/3/4
f 342/4/4 328/4/4 343/4/4
f 328/3/4 329/3/4 344/3/4
f 343/4/4 328/4/4 344/4/4
f 329/4/4 338/4/4 345/4/4
f 344/3/4 329/3/4 345/3/4
f 345/4/4 338/4/4 346/4/4
f 346/4/4 338/4/4 347/4/4
f 338/1/4 339/1/4 348/1/4
f 347/4/4 338/4/4 348/4/4
f 339/4/4 334/4/4 349/4/4
f 348/1/4 339/1/4 349/1/4
f 334/2/4 323/2/4 350/2/4
f 349/4/4 334/4/4 350/4/4
f 343/3/4 344/3/4 351/3/4
f 344/4/4 345/4/4 351/4/4
f 345/3/4 346/3/4 352/3/4
f 351/4/4 345/4/4 352/4/4
f 346/4/4 347/4/4 353/4/4
f 352/3/4 346/3/4 353/3/4
f 353/4/4 347/4/4 354/4/4
f 347/1/4 348/1/4 355/1/4
f 354/4/4 347/4/4 355/4/4
f 348/4/4 349/4/4 356/4/4
f 355/1/4 348/1/4 356/1/4
f 349/2/4 350/2/4 357/2/4
f 356/4/4 349/4/4 357/4/4
f 350/2/4 323/2/4 358/2/4
f 357/2/4 350/2/4 358/2/4
f 323/4/4 303/4/4 359/4/4
f 358/2/4 323/2/4 359/2/4
f 340/4/4 341/4/4 360/4/4
f 360/4/4 341/4/4 361/4/4
f 341/3/4 343/3/4 362/3/4
f 361/4/4 341/4/4 362/4/4
f 343/3/4 351/3/4 362/3/4
f 362/3/4 351/3/4 363/3/4
f 351/2/4 352/2/4 364/2/4
f 363/3/4 351/3/4 364/3/4
f 352/4/4 353/4/4 365/4/4
f 364/2/4 352/2/4 365/2/4
f 353/3/4 354/3/4 366/3/4
f 365/4/4 353/4/4 366/4/4
f 354/1/4 355/1/4 367/1/4
f 366/3/4 354/3/4 367/3/4
f 355/4/4 356/4/4 368/4/4
f 367/1/4 355/1/4 368/1/4
f 357/2/4 358/2/4 369/2/4
f 368/4/4 356/4/4 369/4/4
f 356/2/4 357/2/4 369/2/4
f 362/4/4 363/4/4 370/4/4
f 361/4/4 362/4/4 370/4/4
f 370/4/4 363/4/4 371/4/4
f 364/2/4 365/2/4 372/2/4
f 371/4/4 363/4/4 372/4/4
f 365/2/4 366/2/4 372/2/4
f 363/2/4 364/2/4 372/2/4
f 372/2/4 366/2/4 373/2/4
f 367/4/4 368/4/4 374/4/4
f 373/2/4 366/2/4 374/2/4
f 366/4/4 367/4/4 374/4/4
f 374/4/4 368/4/4 375/4/4
f 368/2/4 369/2/4 376/2/4
f 375/4/4 368/4/4 376/4/4
f 369/2/4 358/2/4 377/2/4
f 376/2/4 369/2/4 377/2/4
f 358/4/4 359/4/4 378/4/4
f 377/2/4 358/2/4 378/2/4
f 359/4/4 303/4/4 379/4/4
f 378/4/4 359/4/4 379/4/4
f 379/4/4 303/4/4 380/4/4
f 372/4/4 373/4/4 381/4/4
f 371/4/4 372/4/4 381/4/4
f 381/4/4 373/4/4 382/4/4
f 374/3/4 375/3/4 383/3/4
f 382/4/4 373/4/4 383/4/4
f 373/3/4 374/3/4 383/3/4
f 383/3/4 375/3/4 384/3/4
f 375/2/4 376/2/4 385/2/4
f 376/2/4 377/2/4 385/2/4
f 385/2/4 377/2/4 386/2/4
f 377/4/4 378/4/4 387/4/4
f 386/2/4 377/2/4 387/2/4
f 378/4/4 379/4/4 387/4/4
f 387/4/4 379/4/4 388/4/4
f 388/4/4 379/4/4 389/4/4
f 383/4/4 384/4/4 390/4/4
f 382/4/4 383/4/4 390/4/4
f 390/4/4 384/4/4 391/4/4
f 384/3/4 375/3/4 392/3/4
f 391/4/4 384/4/4 392/4/4
f 392/3/4 375/3/4 393/3/4
f 385/3/4 386/3/4 394/3/4
f 375/2/4 385/2/4 394/2/4
f 387/4/4 388/4/4 395/4/4
f 394/3/4 386/3/4 395/3/4
f 386/4/4 387/4/4 395/4/4
f 395/4/4 388/4/4 396/4/4
f 396/4/4 388/4/4 397/4/4
f 392/4/4 393/4/4 399/4/4
f 391/4/4 392/4/4 399/4/4
f 393/3/4 375/3/4 400/3/4
f 399/4/4 393/4/4 400/4/4
f 375/2/4 394/2/4 401/2/4
f 400/3/4 375/3/4 401/3/4
f 401/2/4 394/2/4 402/2/4
f 395/4/4 396/4/4 403/4/4
f 402/2/4 394/2/4 403/2/4
f 394/4/4 395/4/4 403/4/4
f 403/4/4 396/4/4 404/4/4
f 404/4/4 396/4/4 405/4/4
f 398/2/4 399/2/4 406/2/4
f 401/2/4 402/2/4 406/2/4
f 399/2/4 400/2/4 406/2/4
f 400/2/4 401/2/4 406/2/4
f 406/2/4 402/2/4 407/2/4
f 403/4/4 404/4/4 408/4/4
f 407/2/4 402/2/4 408/2/4
f 402/4/4 403/4/4 408/4/4
f 408/4/4 404/4/4 409/4/4
f 409/4/4 404/4/4 410/4/4
f 407/4/4 408/4/4 411/4/4
f 408/4/4 409/4/4 411/4/4
f 411/4/4 409/4/4 412/4/4
f 415/2/5 414/2/5 413/2/5
f 416/2/5 414/2/5 415/2/5
f 425/2/5 418/2/5 417/2/5
f 426/2/5 418/2/5 425/2/5
f 427/2/5 420/2/5 419/2/5
f 428/2/5 420/2/5 427/2/5
f 429/4/5 422/4/5 421/4/5
f 430/2/5 423/2/5 422/2/5
f 430/4/5 422/4/5 429/4/5
f 431/4/5 424/4/5 423/4/5
f 431/2/5 423/2/5 430/2/5
f 432/4/5 424/4/5 431/4/5
f 439/4/5 434/4/5 433/4/5
f 440/4/5 434/4/5 439/4/5
f 441/4/5 436/4/5 435/4/5
f 442/4/5 436/4/5 441/4/5
f 443/2/5 438/2/5 437/2/5
f 444/2/5 438/2/5 443/2/5
f 449/4/5 446/4/5 445/4/5
f 450/4/5 446/4/5 449/4/5
f 451/4/5 448/4/5 447/4/5
f 452/4/5 448/4/5 451/4/5
f 457/4/5 454/4/5 453/4/5
f 458/4/5 454/4/5 457/4/5
f 459/4/5 456/4/5 455/4/5
f 460/4/5 456/4/5 459/4/5
f 463/4/5 462/4/5 461/4/5
f 464/4/5 462/4/5 463/4/5
f 467/4/5 466/4/5 465/4/5
f 468/4/5 466/4/5 467/4/5
f 473/4/5 470/4/5 469/4/5
f 474/4/5 470/4/5 473/4/5
f 475/4/5 472/4/5 471/4/5
f 476/4/5 472/4/5 475/4/5
f 477/4/6 478/4/6 481/4/6
f 481/4/6 478/4/6 482/4/6
f 479/4/6 480/4/6 483/4/6
f 483/4/6 480/4/6 484/4/6
f 485/4/6 486/4/6 489/4/6
f 489/4/6 486/4/6 490/4/6
f 487/4/6 488/4/6 491/4/6
f 491/4/6 488/4/6 492/4/6
f 493/4/6 494/4/6 497/4/6
f 497/4/6 494/4/6 498/4/6
f 495/4/6 496/4/6 499/4/6
f 499/4/6 496/4/6 500/4/6
f 501/4/6 502/4/6 505/4/6
f 505/4/6 502/4/6 506/4/6
f 503/4/6 504/4/6 507/4/6
f 507/4/6 504/4/6 508/4/6
f 509/4/6 510/4/6 513/4/6
f 513/4/6 510/4/6 514/4/6
f 511/4/6 512/4/6 515/4/6
f 515/4/6 512/4/6 516/4/6
f 517/4/6 518/4/6 519/4/6
f 519/4/6 518/4/6 520/4/6
